<?xml version="1.0" encoding="UTF-8" standalone="no"?>
<!DOCTYPE svg PUBLIC "-//W3C//DTD SVG 1.1//EN" "http://www.w3.org/Graphics/SVG/1.1/DTD/svg11.dtd">
<svg width="100%" height="100%" viewBox="0 0 3889 1667" version="1.1" xmlns="http://www.w3.org/2000/svg" xmlns:xlink="http://www.w3.org/1999/xlink" xml:space="preserve" xmlns:serif="http://www.serif.com/" style="fill-rule:evenodd;clip-rule:evenodd;stroke-linecap:round;stroke-linejoin:round;stroke-miterlimit:1.5;">
    <g transform="matrix(5.55556,0,0,5.55556,0,0)">
        <g transform="matrix(1,0,0,1,-49.9,-78.7703)">
            <g transform="matrix(0.103582,0.072529,-0.072529,0.103582,252.207,-29.0857)">
                <path d="M731.716,853.296L1053.75,853.296" style="fill:none;stroke:rgb(142,103,160);stroke-width:17.79px;"/>
            </g>
            <g transform="matrix(0.103582,-0.072529,0.072529,0.103582,161.806,100.41)">
                <path d="M731.716,853.296L1053.75,853.296" style="fill:none;stroke:rgb(142,103,160);stroke-width:17.79px;"/>
            </g>
            <g transform="matrix(5.68787e-17,-0.12645,0.12645,5.68787e-17,191.594,269.049)">
                <path d="M731.716,853.296L1053.75,853.296" style="fill:none;stroke:rgb(142,103,160);stroke-width:17.79px;"/>
            </g>
            <g transform="matrix(5.68787e-17,-0.12645,0.12645,5.68787e-17,191.594,269.049)">
                <path d="M731.716,853.296L1053.75,853.296" style="fill:none;stroke:rgb(142,103,160);stroke-width:17.79px;"/>
            </g>
            <g transform="matrix(0.103582,0.072529,-0.072529,0.103582,285.573,-52.4816)">
                <path d="M731.716,853.296L1053.75,853.296" style="fill:none;stroke:rgb(142,103,160);stroke-width:17.79px;"/>
            </g>
            <g transform="matrix(2.80776e-17,-0.12645,0.12645,2.80776e-17,225.053,245.677)">
                <path d="M731.716,853.296L1053.75,853.296" style="fill:none;stroke:rgb(142,103,160);stroke-width:17.79px;"/>
            </g>
            <g transform="matrix(2.80776e-17,-0.12645,0.12645,2.80776e-17,158.1,245.677)">
                <path d="M731.716,853.296L1053.75,853.296" style="fill:none;stroke:rgb(142,103,160);stroke-width:17.79px;"/>
            </g>
            <g transform="matrix(0.103582,-0.072529,0.072529,0.103582,128.407,77.0376)">
                <path d="M731.716,853.296L1053.75,853.296" style="fill:none;stroke:rgb(142,103,160);stroke-width:17.79px;"/>
            </g>
            <g transform="matrix(-0.103582,-0.072529,0.072529,-0.103582,313.385,318.073)">
                <path d="M731.716,853.296L1053.75,853.296" style="fill:none;stroke:rgb(142,103,160);stroke-width:17.79px;"/>
            </g>
            <g transform="matrix(-0.103582,0.072529,-0.072529,-0.103582,470.541,188.554)">
                <path d="M731.716,853.296L1053.75,853.296" style="fill:none;stroke:rgb(142,103,160);stroke-width:17.79px;"/>
            </g>
        </g>
        <g transform="matrix(1,0,0,1,-111.145,-14.4864)">
            <g transform="matrix(0.103582,0.072529,-0.072529,0.103582,346.917,-29.0857)">
                <path d="M731.716,853.296L1053.75,853.296" style="fill:none;stroke:rgb(142,103,160);stroke-width:17.79px;"/>
            </g>
            <g transform="matrix(0.103582,-0.072529,0.072529,0.103582,256.517,100.41)">
                <path d="M731.716,853.296L1053.75,853.296" style="fill:none;stroke:rgb(142,103,160);stroke-width:17.79px;"/>
            </g>
            <g transform="matrix(5.68787e-17,-0.12645,0.12645,5.68787e-17,286.305,269.049)">
                <path d="M731.716,853.296L1053.75,853.296" style="fill:none;stroke:rgb(142,103,160);stroke-width:17.79px;"/>
            </g>
            <g transform="matrix(5.68787e-17,-0.12645,0.12645,5.68787e-17,286.305,269.049)">
                <path d="M731.716,853.296L1053.75,853.296" style="fill:none;stroke:rgb(142,103,160);stroke-width:17.79px;"/>
            </g>
            <g transform="matrix(0.103582,0.072529,-0.072529,0.103582,380.284,-52.4816)">
                <path d="M731.716,853.296L1053.75,853.296" style="fill:none;stroke:rgb(142,103,160);stroke-width:17.79px;"/>
            </g>
            <g transform="matrix(2.80776e-17,-0.12645,0.12645,2.80776e-17,319.763,245.677)">
                <path d="M731.716,853.296L1053.75,853.296" style="fill:none;stroke:rgb(142,103,160);stroke-width:17.79px;"/>
            </g>
            <g transform="matrix(2.80776e-17,-0.12645,0.12645,2.80776e-17,252.811,245.677)">
                <path d="M731.716,853.296L1053.75,853.296" style="fill:none;stroke:rgb(142,103,160);stroke-width:17.79px;"/>
            </g>
            <g transform="matrix(0.103582,-0.072529,0.072529,0.103582,223.118,77.0376)">
                <path d="M731.716,853.296L1053.75,853.296" style="fill:none;stroke:rgb(142,103,160);stroke-width:17.79px;"/>
            </g>
            <g transform="matrix(-0.103582,-0.072529,0.072529,-0.103582,408.096,318.073)">
                <path d="M731.716,853.296L1053.75,853.296" style="fill:none;stroke:rgb(142,103,160);stroke-width:17.79px;"/>
            </g>
            <g transform="matrix(-0.103582,0.072529,-0.072529,-0.103582,565.251,188.554)">
                <path d="M731.716,853.296L1053.75,853.296" style="fill:none;stroke:rgb(142,103,160);stroke-width:17.79px;"/>
            </g>
        </g>
        <g transform="matrix(1,0,0,1,-116.853,-78.7332)">
            <g transform="matrix(0.103582,0.072529,-0.072529,0.103582,252.207,-29.0857)">
                <path d="M731.716,853.296L1053.75,853.296" style="fill:none;stroke:rgb(142,103,160);stroke-width:17.79px;"/>
            </g>
            <g transform="matrix(0.103582,-0.072529,0.072529,0.103582,161.806,100.41)">
                <path d="M731.716,853.296L1053.75,853.296" style="fill:none;stroke:rgb(142,103,160);stroke-width:17.79px;"/>
            </g>
            <g transform="matrix(5.68787e-17,-0.12645,0.12645,5.68787e-17,191.594,269.049)">
                <path d="M731.716,853.296L1053.75,853.296" style="fill:none;stroke:rgb(142,103,160);stroke-width:17.79px;"/>
            </g>
            <g transform="matrix(5.68787e-17,-0.12645,0.12645,5.68787e-17,191.594,269.049)">
                <path d="M731.716,853.296L1053.75,853.296" style="fill:none;stroke:rgb(142,103,160);stroke-width:17.79px;"/>
            </g>
            <g transform="matrix(0.103582,0.072529,-0.072529,0.103582,285.573,-52.4816)">
                <path d="M731.716,853.296L1053.75,853.296" style="fill:none;stroke:rgb(142,103,160);stroke-width:17.79px;"/>
            </g>
            <g transform="matrix(2.80776e-17,-0.12645,0.12645,2.80776e-17,225.053,245.677)">
                <path d="M731.716,853.296L1053.75,853.296" style="fill:none;stroke:rgb(142,103,160);stroke-width:17.79px;"/>
            </g>
            <g transform="matrix(2.80776e-17,-0.12645,0.12645,2.80776e-17,158.1,245.677)">
                <path d="M731.716,853.296L1053.75,853.296" style="fill:none;stroke:rgb(142,103,160);stroke-width:17.79px;"/>
            </g>
            <g transform="matrix(0.103582,-0.072529,0.072529,0.103582,128.407,77.0376)">
                <path d="M731.716,853.296L1053.75,853.296" style="fill:none;stroke:rgb(142,103,160);stroke-width:17.79px;"/>
            </g>
            <g transform="matrix(-0.103582,-0.072529,0.072529,-0.103582,313.385,318.073)">
                <path d="M731.716,853.296L1053.75,853.296" style="fill:none;stroke:rgb(142,103,160);stroke-width:17.79px;"/>
            </g>
            <g transform="matrix(-0.103582,0.072529,-0.072529,-0.103582,470.541,188.554)">
                <path d="M731.716,853.296L1053.75,853.296" style="fill:none;stroke:rgb(142,103,160);stroke-width:17.79px;"/>
            </g>
        </g>
        <g transform="matrix(1,0,0,1,-150.341,-14.4864)">
            <g transform="matrix(0.103582,0.072529,-0.072529,0.103582,252.207,-29.0857)">
                <path d="M731.716,853.296L1053.75,853.296" style="fill:none;stroke:rgb(142,103,160);stroke-width:17.79px;"/>
            </g>
            <g transform="matrix(0.103582,-0.072529,0.072529,0.103582,161.806,100.41)">
                <path d="M731.716,853.296L1053.75,853.296" style="fill:none;stroke:rgb(142,103,160);stroke-width:17.79px;"/>
            </g>
            <g transform="matrix(5.68787e-17,-0.12645,0.12645,5.68787e-17,191.594,269.049)">
                <path d="M731.716,853.296L1053.75,853.296" style="fill:none;stroke:rgb(142,103,160);stroke-width:17.79px;"/>
            </g>
            <g transform="matrix(5.68787e-17,-0.12645,0.12645,5.68787e-17,191.594,269.049)">
                <path d="M731.716,853.296L1053.75,853.296" style="fill:none;stroke:rgb(142,103,160);stroke-width:17.79px;"/>
            </g>
            <g transform="matrix(0.103582,0.072529,-0.072529,0.103582,285.573,-52.4816)">
                <path d="M731.716,853.296L1053.75,853.296" style="fill:none;stroke:rgb(142,103,160);stroke-width:17.79px;"/>
            </g>
            <g transform="matrix(2.80776e-17,-0.12645,0.12645,2.80776e-17,225.053,245.677)">
                <path d="M731.716,853.296L1053.75,853.296" style="fill:none;stroke:rgb(142,103,160);stroke-width:17.79px;"/>
            </g>
            <g transform="matrix(2.80776e-17,-0.12645,0.12645,2.80776e-17,158.1,245.677)">
                <path d="M731.716,853.296L1053.75,853.296" style="fill:none;stroke:rgb(142,103,160);stroke-width:17.79px;"/>
            </g>
            <g transform="matrix(0.103582,-0.072529,0.072529,0.103582,128.407,77.0376)">
                <path d="M731.716,853.296L1053.75,853.296" style="fill:none;stroke:rgb(142,103,160);stroke-width:17.79px;"/>
            </g>
            <g transform="matrix(-0.103582,-0.072529,0.072529,-0.103582,313.385,318.073)">
                <path d="M731.716,853.296L1053.75,853.296" style="fill:none;stroke:rgb(142,103,160);stroke-width:17.79px;"/>
            </g>
            <g transform="matrix(-0.103582,0.072529,-0.072529,-0.103582,470.541,188.554)">
                <path d="M731.716,853.296L1053.75,853.296" style="fill:none;stroke:rgb(142,103,160);stroke-width:17.79px;"/>
            </g>
        </g>
        <g transform="matrix(1,0,0,1,-50.0193,49.5383)">
            <g transform="matrix(0.103582,0.072529,-0.072529,0.103582,252.207,-29.0857)">
                <path d="M731.716,853.296L1053.75,853.296" style="fill:none;stroke:rgb(142,103,160);stroke-width:17.79px;"/>
            </g>
            <g transform="matrix(0.103582,-0.072529,0.072529,0.103582,161.806,100.41)">
                <path d="M731.716,853.296L1053.75,853.296" style="fill:none;stroke:rgb(142,103,160);stroke-width:17.79px;"/>
            </g>
            <g transform="matrix(5.68787e-17,-0.12645,0.12645,5.68787e-17,191.594,269.049)">
                <path d="M731.716,853.296L1053.75,853.296" style="fill:none;stroke:rgb(142,103,160);stroke-width:17.79px;"/>
            </g>
            <g transform="matrix(5.68787e-17,-0.12645,0.12645,5.68787e-17,191.594,269.049)">
                <path d="M731.716,853.296L1053.75,853.296" style="fill:none;stroke:rgb(142,103,160);stroke-width:17.79px;"/>
            </g>
            <g transform="matrix(0.103582,0.072529,-0.072529,0.103582,285.573,-52.4816)">
                <path d="M731.716,853.296L1053.75,853.296" style="fill:none;stroke:rgb(142,103,160);stroke-width:17.79px;"/>
            </g>
            <g transform="matrix(2.80776e-17,-0.12645,0.12645,2.80776e-17,225.053,245.677)">
                <path d="M731.716,853.296L1053.75,853.296" style="fill:none;stroke:rgb(142,103,160);stroke-width:17.79px;"/>
            </g>
            <g transform="matrix(2.80776e-17,-0.12645,0.12645,2.80776e-17,158.1,245.677)">
                <path d="M731.716,853.296L1053.75,853.296" style="fill:none;stroke:rgb(142,103,160);stroke-width:17.79px;"/>
            </g>
            <g transform="matrix(0.103582,-0.072529,0.072529,0.103582,128.407,77.0376)">
                <path d="M731.716,853.296L1053.75,853.296" style="fill:none;stroke:rgb(142,103,160);stroke-width:17.79px;"/>
            </g>
            <g transform="matrix(-0.103582,-0.072529,0.072529,-0.103582,313.385,318.073)">
                <path d="M731.716,853.296L1053.75,853.296" style="fill:none;stroke:rgb(142,103,160);stroke-width:17.79px;"/>
            </g>
            <g transform="matrix(-0.103582,0.072529,-0.072529,-0.103582,470.541,188.554)">
                <path d="M731.716,853.296L1053.75,853.296" style="fill:none;stroke:rgb(142,103,160);stroke-width:17.79px;"/>
            </g>
        </g>
        <g transform="matrix(1,0,0,1,-183.817,49.5383)">
            <g transform="matrix(0.103582,0.072529,-0.072529,0.103582,252.207,-29.0857)">
                <path d="M731.716,853.296L1053.75,853.296" style="fill:none;stroke:rgb(142,103,160);stroke-width:17.79px;"/>
            </g>
            <g transform="matrix(0.103582,-0.072529,0.072529,0.103582,161.806,100.41)">
                <path d="M731.716,853.296L1053.75,853.296" style="fill:none;stroke:rgb(142,103,160);stroke-width:17.79px;"/>
            </g>
            <g transform="matrix(5.68787e-17,-0.12645,0.12645,5.68787e-17,191.594,269.049)">
                <path d="M731.716,853.296L1053.75,853.296" style="fill:none;stroke:rgb(142,103,160);stroke-width:17.79px;"/>
            </g>
            <g transform="matrix(5.68787e-17,-0.12645,0.12645,5.68787e-17,191.594,269.049)">
                <path d="M731.716,853.296L1053.75,853.296" style="fill:none;stroke:rgb(142,103,160);stroke-width:17.79px;"/>
            </g>
            <g transform="matrix(0.103582,0.072529,-0.072529,0.103582,285.573,-52.4816)">
                <path d="M731.716,853.296L1053.75,853.296" style="fill:none;stroke:rgb(142,103,160);stroke-width:17.79px;"/>
            </g>
            <g transform="matrix(2.80776e-17,-0.12645,0.12645,2.80776e-17,225.053,245.677)">
                <path d="M731.716,853.296L1053.75,853.296" style="fill:none;stroke:rgb(142,103,160);stroke-width:17.79px;"/>
            </g>
            <g transform="matrix(2.80776e-17,-0.12645,0.12645,2.80776e-17,158.1,245.677)">
                <path d="M731.716,853.296L1053.75,853.296" style="fill:none;stroke:rgb(142,103,160);stroke-width:17.79px;"/>
            </g>
            <g transform="matrix(0.103582,-0.072529,0.072529,0.103582,128.407,77.0376)">
                <path d="M731.716,853.296L1053.75,853.296" style="fill:none;stroke:rgb(142,103,160);stroke-width:17.79px;"/>
            </g>
            <g transform="matrix(-0.103582,-0.072529,0.072529,-0.103582,313.385,318.073)">
                <path d="M731.716,853.296L1053.75,853.296" style="fill:none;stroke:rgb(142,103,160);stroke-width:17.79px;"/>
            </g>
            <g transform="matrix(-0.103582,0.072529,-0.072529,-0.103582,470.541,188.554)">
                <path d="M731.716,853.296L1053.75,853.296" style="fill:none;stroke:rgb(142,103,160);stroke-width:17.79px;"/>
            </g>
        </g>
        <g transform="matrix(1,0,0,1,-217.267,-14.4704)">
            <g transform="matrix(0.103582,0.072529,-0.072529,0.103582,252.207,-29.0857)">
                <path d="M731.716,853.296L1053.75,853.296" style="fill:none;stroke:rgb(142,103,160);stroke-width:17.79px;"/>
            </g>
            <g transform="matrix(0.103582,-0.072529,0.072529,0.103582,161.806,100.41)">
                <path d="M731.716,853.296L1053.75,853.296" style="fill:none;stroke:rgb(142,103,160);stroke-width:17.79px;"/>
            </g>
            <g transform="matrix(5.68787e-17,-0.12645,0.12645,5.68787e-17,191.594,269.049)">
                <path d="M731.716,853.296L1053.75,853.296" style="fill:none;stroke:rgb(142,103,160);stroke-width:17.79px;"/>
            </g>
            <g transform="matrix(5.68787e-17,-0.12645,0.12645,5.68787e-17,191.594,269.049)">
                <path d="M731.716,853.296L1053.75,853.296" style="fill:none;stroke:rgb(142,103,160);stroke-width:17.79px;"/>
            </g>
            <g transform="matrix(0.103582,0.072529,-0.072529,0.103582,285.573,-52.4816)">
                <path d="M731.716,853.296L1053.75,853.296" style="fill:none;stroke:rgb(142,103,160);stroke-width:17.79px;"/>
            </g>
            <g transform="matrix(2.80776e-17,-0.12645,0.12645,2.80776e-17,225.053,245.677)">
                <path d="M731.716,853.296L1053.75,853.296" style="fill:none;stroke:rgb(142,103,160);stroke-width:17.79px;"/>
            </g>
            <g transform="matrix(2.80776e-17,-0.12645,0.12645,2.80776e-17,158.1,245.677)">
                <path d="M731.716,853.296L1053.75,853.296" style="fill:none;stroke:rgb(142,103,160);stroke-width:17.79px;"/>
            </g>
            <g transform="matrix(0.103582,-0.072529,0.072529,0.103582,128.407,77.0376)">
                <path d="M731.716,853.296L1053.75,853.296" style="fill:none;stroke:rgb(142,103,160);stroke-width:17.79px;"/>
            </g>
            <g transform="matrix(-0.103582,-0.072529,0.072529,-0.103582,313.385,318.073)">
                <path d="M731.716,853.296L1053.75,853.296" style="fill:none;stroke:rgb(142,103,160);stroke-width:17.79px;"/>
            </g>
            <g transform="matrix(-0.103582,0.072529,-0.072529,-0.103582,470.541,188.554)">
                <path d="M731.716,853.296L1053.75,853.296" style="fill:none;stroke:rgb(142,103,160);stroke-width:17.79px;"/>
            </g>
        </g>
        <g transform="matrix(1,0,0,1,-217.294,113.538)">
            <g transform="matrix(0.103582,0.072529,-0.072529,0.103582,252.207,-29.0857)">
                <path d="M731.716,853.296L1053.75,853.296" style="fill:none;stroke:rgb(142,103,160);stroke-width:17.79px;"/>
            </g>
            <g transform="matrix(0.103582,-0.072529,0.072529,0.103582,161.806,100.41)">
                <path d="M731.716,853.296L1053.75,853.296" style="fill:none;stroke:rgb(142,103,160);stroke-width:17.79px;"/>
            </g>
            <g transform="matrix(5.68787e-17,-0.12645,0.12645,5.68787e-17,191.594,269.049)">
                <path d="M731.716,853.296L1053.75,853.296" style="fill:none;stroke:rgb(142,103,160);stroke-width:17.79px;"/>
            </g>
            <g transform="matrix(5.68787e-17,-0.12645,0.12645,5.68787e-17,191.594,269.049)">
                <path d="M731.716,853.296L1053.75,853.296" style="fill:none;stroke:rgb(142,103,160);stroke-width:17.79px;"/>
            </g>
            <g transform="matrix(0.103582,0.072529,-0.072529,0.103582,285.573,-52.4816)">
                <path d="M731.716,853.296L1053.75,853.296" style="fill:none;stroke:rgb(142,103,160);stroke-width:17.79px;"/>
            </g>
            <g transform="matrix(2.80776e-17,-0.12645,0.12645,2.80776e-17,225.053,245.677)">
                <path d="M731.716,853.296L1053.75,853.296" style="fill:none;stroke:rgb(142,103,160);stroke-width:17.79px;"/>
            </g>
            <g transform="matrix(2.80776e-17,-0.12645,0.12645,2.80776e-17,158.1,245.677)">
                <path d="M731.716,853.296L1053.75,853.296" style="fill:none;stroke:rgb(142,103,160);stroke-width:17.79px;"/>
            </g>
            <g transform="matrix(0.103582,-0.072529,0.072529,0.103582,128.407,77.0376)">
                <path d="M731.716,853.296L1053.75,853.296" style="fill:none;stroke:rgb(142,103,160);stroke-width:17.79px;"/>
            </g>
            <g transform="matrix(-0.103582,-0.072529,0.072529,-0.103582,313.385,318.073)">
                <path d="M731.716,853.296L1053.75,853.296" style="fill:none;stroke:rgb(142,103,160);stroke-width:17.79px;"/>
            </g>
            <g transform="matrix(-0.103582,0.072529,-0.072529,-0.103582,470.541,188.554)">
                <path d="M731.716,853.296L1053.75,853.296" style="fill:none;stroke:rgb(142,103,160);stroke-width:17.79px;"/>
            </g>
        </g>
        <g transform="matrix(1,0,0,1,17.0529,49.5383)">
            <g transform="matrix(0.103582,0.072529,-0.072529,0.103582,252.207,-29.0857)">
                <path d="M731.716,853.296L1053.75,853.296" style="fill:none;stroke:rgb(142,103,160);stroke-width:17.79px;"/>
            </g>
            <g transform="matrix(0.103582,-0.072529,0.072529,0.103582,161.806,100.41)">
                <path d="M731.716,853.296L1053.75,853.296" style="fill:none;stroke:rgb(142,103,160);stroke-width:17.79px;"/>
            </g>
            <g transform="matrix(5.68787e-17,-0.12645,0.12645,5.68787e-17,191.594,269.049)">
                <path d="M731.716,853.296L1053.75,853.296" style="fill:none;stroke:rgb(142,103,160);stroke-width:17.79px;"/>
            </g>
            <g transform="matrix(5.68787e-17,-0.12645,0.12645,5.68787e-17,191.594,269.049)">
                <path d="M731.716,853.296L1053.75,853.296" style="fill:none;stroke:rgb(142,103,160);stroke-width:17.79px;"/>
            </g>
            <g transform="matrix(0.103582,0.072529,-0.072529,0.103582,285.573,-52.4816)">
                <path d="M731.716,853.296L1053.75,853.296" style="fill:none;stroke:rgb(142,103,160);stroke-width:17.79px;"/>
            </g>
            <g transform="matrix(2.80776e-17,-0.12645,0.12645,2.80776e-17,225.053,245.677)">
                <path d="M731.716,853.296L1053.75,853.296" style="fill:none;stroke:rgb(142,103,160);stroke-width:17.79px;"/>
            </g>
            <g transform="matrix(2.80776e-17,-0.12645,0.12645,2.80776e-17,158.1,245.677)">
                <path d="M731.716,853.296L1053.75,853.296" style="fill:none;stroke:rgb(142,103,160);stroke-width:17.79px;"/>
            </g>
            <g transform="matrix(0.103582,-0.072529,0.072529,0.103582,128.407,77.0376)">
                <path d="M731.716,853.296L1053.75,853.296" style="fill:none;stroke:rgb(142,103,160);stroke-width:17.79px;"/>
            </g>
            <g transform="matrix(-0.103582,-0.072529,0.072529,-0.103582,313.385,318.073)">
                <path d="M731.716,853.296L1053.75,853.296" style="fill:none;stroke:rgb(142,103,160);stroke-width:17.79px;"/>
            </g>
            <g transform="matrix(-0.103582,0.072529,-0.072529,-0.103582,470.541,188.554)">
                <path d="M731.716,853.296L1053.75,853.296" style="fill:none;stroke:rgb(142,103,160);stroke-width:17.79px;"/>
            </g>
        </g>
        <g transform="matrix(1,0,0,1,-16.435,114.204)">
            <g transform="matrix(0.103582,0.072529,-0.072529,0.103582,252.207,-29.0857)">
                <path d="M731.716,853.296L1053.75,853.296" style="fill:none;stroke:rgb(142,103,160);stroke-width:17.79px;"/>
            </g>
            <g transform="matrix(0.103582,-0.072529,0.072529,0.103582,161.806,100.41)">
                <path d="M731.716,853.296L1053.75,853.296" style="fill:none;stroke:rgb(142,103,160);stroke-width:17.79px;"/>
            </g>
            <g transform="matrix(5.68787e-17,-0.12645,0.12645,5.68787e-17,191.594,269.049)">
                <path d="M731.716,853.296L1053.75,853.296" style="fill:none;stroke:rgb(142,103,160);stroke-width:17.79px;"/>
            </g>
            <g transform="matrix(5.68787e-17,-0.12645,0.12645,5.68787e-17,191.594,269.049)">
                <path d="M731.716,853.296L1053.75,853.296" style="fill:none;stroke:rgb(142,103,160);stroke-width:17.79px;"/>
            </g>
            <g transform="matrix(0.103582,0.072529,-0.072529,0.103582,285.573,-52.4816)">
                <path d="M731.716,853.296L1053.75,853.296" style="fill:none;stroke:rgb(142,103,160);stroke-width:17.79px;"/>
            </g>
            <g transform="matrix(2.80776e-17,-0.12645,0.12645,2.80776e-17,225.053,245.677)">
                <path d="M731.716,853.296L1053.75,853.296" style="fill:none;stroke:rgb(142,103,160);stroke-width:17.79px;"/>
            </g>
            <g transform="matrix(2.80776e-17,-0.12645,0.12645,2.80776e-17,158.1,245.677)">
                <path d="M731.716,853.296L1053.75,853.296" style="fill:none;stroke:rgb(142,103,160);stroke-width:17.79px;"/>
            </g>
            <g transform="matrix(0.103582,-0.072529,0.072529,0.103582,128.407,77.0376)">
                <path d="M731.716,853.296L1053.75,853.296" style="fill:none;stroke:rgb(142,103,160);stroke-width:17.79px;"/>
            </g>
            <g transform="matrix(-0.103582,-0.072529,0.072529,-0.103582,313.385,318.073)">
                <path d="M731.716,853.296L1053.75,853.296" style="fill:none;stroke:rgb(142,103,160);stroke-width:17.79px;"/>
            </g>
            <g transform="matrix(-0.103582,0.072529,-0.072529,-0.103582,470.541,188.554)">
                <path d="M731.716,853.296L1053.75,853.296" style="fill:none;stroke:rgb(142,103,160);stroke-width:17.79px;"/>
            </g>
        </g>
        <g transform="matrix(1,0,0,1,17.0529,-78.7703)">
            <g transform="matrix(0.103582,0.072529,-0.072529,0.103582,252.207,-29.0857)">
                <path d="M731.716,853.296L1053.75,853.296" style="fill:none;stroke:rgb(142,103,160);stroke-width:17.79px;"/>
            </g>
            <g transform="matrix(0.103582,-0.072529,0.072529,0.103582,161.806,100.41)">
                <path d="M731.716,853.296L1053.75,853.296" style="fill:none;stroke:rgb(142,103,160);stroke-width:17.79px;"/>
            </g>
            <g transform="matrix(5.68787e-17,-0.12645,0.12645,5.68787e-17,191.594,269.049)">
                <path d="M731.716,853.296L1053.75,853.296" style="fill:none;stroke:rgb(142,103,160);stroke-width:17.79px;"/>
            </g>
            <g transform="matrix(5.68787e-17,-0.12645,0.12645,5.68787e-17,191.594,269.049)">
                <path d="M731.716,853.296L1053.75,853.296" style="fill:none;stroke:rgb(142,103,160);stroke-width:17.79px;"/>
            </g>
            <g transform="matrix(0.103582,0.072529,-0.072529,0.103582,285.573,-52.4816)">
                <path d="M731.716,853.296L1053.75,853.296" style="fill:none;stroke:rgb(142,103,160);stroke-width:17.79px;"/>
            </g>
            <g transform="matrix(2.80776e-17,-0.12645,0.12645,2.80776e-17,225.053,245.677)">
                <path d="M731.716,853.296L1053.75,853.296" style="fill:none;stroke:rgb(142,103,160);stroke-width:17.79px;"/>
            </g>
            <g transform="matrix(2.80776e-17,-0.12645,0.12645,2.80776e-17,158.1,245.677)">
                <path d="M731.716,853.296L1053.75,853.296" style="fill:none;stroke:rgb(142,103,160);stroke-width:17.79px;"/>
            </g>
            <g transform="matrix(0.103582,-0.072529,0.072529,0.103582,128.407,77.0376)">
                <path d="M731.716,853.296L1053.75,853.296" style="fill:none;stroke:rgb(142,103,160);stroke-width:17.79px;"/>
            </g>
            <g transform="matrix(-0.103582,-0.072529,0.072529,-0.103582,313.385,318.073)">
                <path d="M731.716,853.296L1053.75,853.296" style="fill:none;stroke:rgb(142,103,160);stroke-width:17.79px;"/>
            </g>
            <g transform="matrix(-0.103582,0.072529,-0.072529,-0.103582,470.541,188.554)">
                <path d="M731.716,853.296L1053.75,853.296" style="fill:none;stroke:rgb(142,103,160);stroke-width:17.79px;"/>
            </g>
        </g>
        <g transform="matrix(1,0,0,1,84,-78.7703)">
            <g transform="matrix(0.103582,0.072529,-0.072529,0.103582,252.207,-29.0857)">
                <path d="M731.716,853.296L1053.75,853.296" style="fill:none;stroke:rgb(142,103,160);stroke-width:17.79px;"/>
            </g>
            <g transform="matrix(0.103582,-0.072529,0.072529,0.103582,161.806,100.41)">
                <path d="M731.716,853.296L1053.75,853.296" style="fill:none;stroke:rgb(142,103,160);stroke-width:17.79px;"/>
            </g>
            <g transform="matrix(5.68787e-17,-0.12645,0.12645,5.68787e-17,191.594,269.049)">
                <path d="M731.716,853.296L1053.75,853.296" style="fill:none;stroke:rgb(142,103,160);stroke-width:17.79px;"/>
            </g>
            <g transform="matrix(5.68787e-17,-0.12645,0.12645,5.68787e-17,191.594,269.049)">
                <path d="M731.716,853.296L1053.75,853.296" style="fill:none;stroke:rgb(142,103,160);stroke-width:17.79px;"/>
            </g>
            <g transform="matrix(0.103582,0.072529,-0.072529,0.103582,285.573,-52.4816)">
                <path d="M731.716,853.296L1053.75,853.296" style="fill:none;stroke:rgb(142,103,160);stroke-width:17.79px;"/>
            </g>
            <g transform="matrix(2.80776e-17,-0.12645,0.12645,2.80776e-17,225.053,245.677)">
                <path d="M731.716,853.296L1053.75,853.296" style="fill:none;stroke:rgb(142,103,160);stroke-width:17.79px;"/>
            </g>
            <g transform="matrix(2.80776e-17,-0.12645,0.12645,2.80776e-17,158.1,245.677)">
                <path d="M731.716,853.296L1053.75,853.296" style="fill:none;stroke:rgb(142,103,160);stroke-width:17.79px;"/>
            </g>
            <g transform="matrix(0.103582,-0.072529,0.072529,0.103582,128.407,77.0376)">
                <path d="M731.716,853.296L1053.75,853.296" style="fill:none;stroke:rgb(142,103,160);stroke-width:17.79px;"/>
            </g>
            <g transform="matrix(-0.103582,-0.072529,0.072529,-0.103582,313.385,318.073)">
                <path d="M731.716,853.296L1053.75,853.296" style="fill:none;stroke:rgb(142,103,160);stroke-width:17.79px;"/>
            </g>
            <g transform="matrix(-0.103582,0.072529,-0.072529,-0.103582,470.541,188.554)">
                <path d="M731.716,853.296L1053.75,853.296" style="fill:none;stroke:rgb(142,103,160);stroke-width:17.79px;"/>
            </g>
        </g>
        <g transform="matrix(1,0,0,1,117.482,-14.4864)">
            <g transform="matrix(0.103582,0.072529,-0.072529,0.103582,252.207,-29.0857)">
                <path d="M731.716,853.296L1053.75,853.296" style="fill:none;stroke:rgb(142,103,160);stroke-width:17.79px;"/>
            </g>
            <g transform="matrix(0.103582,-0.072529,0.072529,0.103582,161.806,100.41)">
                <path d="M731.716,853.296L1053.75,853.296" style="fill:none;stroke:rgb(142,103,160);stroke-width:17.79px;"/>
            </g>
            <g transform="matrix(5.68787e-17,-0.12645,0.12645,5.68787e-17,191.594,269.049)">
                <path d="M731.716,853.296L1053.75,853.296" style="fill:none;stroke:rgb(142,103,160);stroke-width:17.79px;"/>
            </g>
            <g transform="matrix(5.68787e-17,-0.12645,0.12645,5.68787e-17,191.594,269.049)">
                <path d="M731.716,853.296L1053.75,853.296" style="fill:none;stroke:rgb(142,103,160);stroke-width:17.79px;"/>
            </g>
            <g transform="matrix(0.103582,0.072529,-0.072529,0.103582,285.573,-52.4816)">
                <path d="M731.716,853.296L1053.75,853.296" style="fill:none;stroke:rgb(142,103,160);stroke-width:17.79px;"/>
            </g>
            <g transform="matrix(2.80776e-17,-0.12645,0.12645,2.80776e-17,225.053,245.677)">
                <path d="M731.716,853.296L1053.75,853.296" style="fill:none;stroke:rgb(142,103,160);stroke-width:17.79px;"/>
            </g>
            <g transform="matrix(2.80776e-17,-0.12645,0.12645,2.80776e-17,158.1,245.677)">
                <path d="M731.716,853.296L1053.75,853.296" style="fill:none;stroke:rgb(142,103,160);stroke-width:17.79px;"/>
            </g>
            <g transform="matrix(0.103582,-0.072529,0.072529,0.103582,128.407,77.0376)">
                <path d="M731.716,853.296L1053.75,853.296" style="fill:none;stroke:rgb(142,103,160);stroke-width:17.79px;"/>
            </g>
            <g transform="matrix(-0.103582,-0.072529,0.072529,-0.103582,313.385,318.073)">
                <path d="M731.716,853.296L1053.75,853.296" style="fill:none;stroke:rgb(142,103,160);stroke-width:17.79px;"/>
            </g>
            <g transform="matrix(-0.103582,0.072529,-0.072529,-0.103582,470.541,188.554)">
                <path d="M731.716,853.296L1053.75,853.296" style="fill:none;stroke:rgb(142,103,160);stroke-width:17.79px;"/>
            </g>
        </g>
        <g transform="matrix(1,0,0,1,151,50.0179)">
            <g transform="matrix(0.103582,0.072529,-0.072529,0.103582,252.207,-29.0857)">
                <path d="M731.716,853.296L1053.75,853.296" style="fill:none;stroke:rgb(142,103,160);stroke-width:17.79px;"/>
            </g>
            <g transform="matrix(0.103582,-0.072529,0.072529,0.103582,161.806,100.41)">
                <path d="M731.716,853.296L1053.75,853.296" style="fill:none;stroke:rgb(142,103,160);stroke-width:17.79px;"/>
            </g>
            <g transform="matrix(5.68787e-17,-0.12645,0.12645,5.68787e-17,191.594,269.049)">
                <path d="M731.716,853.296L1053.75,853.296" style="fill:none;stroke:rgb(142,103,160);stroke-width:17.79px;"/>
            </g>
            <g transform="matrix(5.68787e-17,-0.12645,0.12645,5.68787e-17,191.594,269.049)">
                <path d="M731.716,853.296L1053.75,853.296" style="fill:none;stroke:rgb(142,103,160);stroke-width:17.79px;"/>
            </g>
            <g transform="matrix(0.103582,0.072529,-0.072529,0.103582,285.573,-52.4816)">
                <path d="M731.716,853.296L1053.75,853.296" style="fill:none;stroke:rgb(142,103,160);stroke-width:17.79px;"/>
            </g>
            <g transform="matrix(2.80776e-17,-0.12645,0.12645,2.80776e-17,225.053,245.677)">
                <path d="M731.716,853.296L1053.75,853.296" style="fill:none;stroke:rgb(142,103,160);stroke-width:17.79px;"/>
            </g>
            <g transform="matrix(2.80776e-17,-0.12645,0.12645,2.80776e-17,158.1,245.677)">
                <path d="M731.716,853.296L1053.75,853.296" style="fill:none;stroke:rgb(142,103,160);stroke-width:17.79px;"/>
            </g>
            <g transform="matrix(0.103582,-0.072529,0.072529,0.103582,128.407,77.0376)">
                <path d="M731.716,853.296L1053.75,853.296" style="fill:none;stroke:rgb(142,103,160);stroke-width:17.79px;"/>
            </g>
            <g transform="matrix(-0.103582,-0.072529,0.072529,-0.103582,313.385,318.073)">
                <path d="M731.716,853.296L1053.75,853.296" style="fill:none;stroke:rgb(142,103,160);stroke-width:17.79px;"/>
            </g>
            <g transform="matrix(-0.103582,0.072529,-0.072529,-0.103582,470.541,188.554)">
                <path d="M731.716,853.296L1053.75,853.296" style="fill:none;stroke:rgb(142,103,160);stroke-width:17.79px;"/>
            </g>
        </g>
        <g transform="matrix(1,0,0,1,184.435,-14.4864)">
            <g transform="matrix(0.103582,0.072529,-0.072529,0.103582,252.207,-29.0857)">
                <path d="M731.716,853.296L1053.75,853.296" style="fill:none;stroke:rgb(142,103,160);stroke-width:17.79px;"/>
            </g>
            <g transform="matrix(0.103582,-0.072529,0.072529,0.103582,161.806,100.41)">
                <path d="M731.716,853.296L1053.75,853.296" style="fill:none;stroke:rgb(142,103,160);stroke-width:17.79px;"/>
            </g>
            <g transform="matrix(5.68787e-17,-0.12645,0.12645,5.68787e-17,191.594,269.049)">
                <path d="M731.716,853.296L1053.75,853.296" style="fill:none;stroke:rgb(142,103,160);stroke-width:17.79px;"/>
            </g>
            <g transform="matrix(5.68787e-17,-0.12645,0.12645,5.68787e-17,191.594,269.049)">
                <path d="M731.716,853.296L1053.75,853.296" style="fill:none;stroke:rgb(142,103,160);stroke-width:17.79px;"/>
            </g>
            <g transform="matrix(0.103582,0.072529,-0.072529,0.103582,285.573,-52.4816)">
                <path d="M731.716,853.296L1053.75,853.296" style="fill:none;stroke:rgb(142,103,160);stroke-width:17.79px;"/>
            </g>
            <g transform="matrix(2.80776e-17,-0.12645,0.12645,2.80776e-17,225.053,245.677)">
                <path d="M731.716,853.296L1053.75,853.296" style="fill:none;stroke:rgb(142,103,160);stroke-width:17.79px;"/>
            </g>
            <g transform="matrix(2.80776e-17,-0.12645,0.12645,2.80776e-17,158.1,245.677)">
                <path d="M731.716,853.296L1053.75,853.296" style="fill:none;stroke:rgb(142,103,160);stroke-width:17.79px;"/>
            </g>
            <g transform="matrix(0.103582,-0.072529,0.072529,0.103582,128.407,77.0376)">
                <path d="M731.716,853.296L1053.75,853.296" style="fill:none;stroke:rgb(142,103,160);stroke-width:17.79px;"/>
            </g>
            <g transform="matrix(-0.103582,-0.072529,0.072529,-0.103582,313.385,318.073)">
                <path d="M731.716,853.296L1053.75,853.296" style="fill:none;stroke:rgb(142,103,160);stroke-width:17.79px;"/>
            </g>
            <g transform="matrix(-0.103582,0.072529,-0.072529,-0.103582,470.541,188.554)">
                <path d="M731.716,853.296L1053.75,853.296" style="fill:none;stroke:rgb(142,103,160);stroke-width:17.79px;"/>
            </g>
        </g>
        <g transform="matrix(1,0,0,1,217.911,50.2044)">
            <g transform="matrix(0.103582,0.072529,-0.072529,0.103582,252.207,-29.0857)">
                <path d="M731.716,853.296L1053.75,853.296" style="fill:none;stroke:rgb(142,103,160);stroke-width:17.79px;"/>
            </g>
            <g transform="matrix(0.103582,-0.072529,0.072529,0.103582,161.806,100.41)">
                <path d="M731.716,853.296L1053.75,853.296" style="fill:none;stroke:rgb(142,103,160);stroke-width:17.79px;"/>
            </g>
            <g transform="matrix(5.68787e-17,-0.12645,0.12645,5.68787e-17,191.594,269.049)">
                <path d="M731.716,853.296L1053.75,853.296" style="fill:none;stroke:rgb(142,103,160);stroke-width:17.79px;"/>
            </g>
            <g transform="matrix(5.68787e-17,-0.12645,0.12645,5.68787e-17,191.594,269.049)">
                <path d="M731.716,853.296L1053.75,853.296" style="fill:none;stroke:rgb(142,103,160);stroke-width:17.79px;"/>
            </g>
            <g transform="matrix(0.103582,0.072529,-0.072529,0.103582,285.573,-52.4816)">
                <path d="M731.716,853.296L1053.75,853.296" style="fill:none;stroke:rgb(142,103,160);stroke-width:17.79px;"/>
            </g>
            <g transform="matrix(2.80776e-17,-0.12645,0.12645,2.80776e-17,225.053,245.677)">
                <path d="M731.716,853.296L1053.75,853.296" style="fill:none;stroke:rgb(142,103,160);stroke-width:17.79px;"/>
            </g>
            <g transform="matrix(2.80776e-17,-0.12645,0.12645,2.80776e-17,158.1,245.677)">
                <path d="M731.716,853.296L1053.75,853.296" style="fill:none;stroke:rgb(142,103,160);stroke-width:17.79px;"/>
            </g>
            <g transform="matrix(0.103582,-0.072529,0.072529,0.103582,128.407,77.0376)">
                <path d="M731.716,853.296L1053.75,853.296" style="fill:none;stroke:rgb(142,103,160);stroke-width:17.79px;"/>
            </g>
            <g transform="matrix(-0.103582,-0.072529,0.072529,-0.103582,313.385,318.073)">
                <path d="M731.716,853.296L1053.75,853.296" style="fill:none;stroke:rgb(142,103,160);stroke-width:17.79px;"/>
            </g>
            <g transform="matrix(-0.103582,0.072529,-0.072529,-0.103582,470.541,188.554)">
                <path d="M731.716,853.296L1053.75,853.296" style="fill:none;stroke:rgb(142,103,160);stroke-width:17.79px;"/>
            </g>
        </g>
        <g transform="matrix(1,0,0,1,251.524,115.025)">
            <g transform="matrix(0.103582,0.072529,-0.072529,0.103582,252.207,-29.0857)">
                <path d="M731.716,853.296L1053.75,853.296" style="fill:none;stroke:rgb(142,103,160);stroke-width:17.79px;"/>
            </g>
            <g transform="matrix(0.103582,-0.072529,0.072529,0.103582,161.806,100.41)">
                <path d="M731.716,853.296L1053.75,853.296" style="fill:none;stroke:rgb(142,103,160);stroke-width:17.79px;"/>
            </g>
            <g transform="matrix(5.68787e-17,-0.12645,0.12645,5.68787e-17,191.594,269.049)">
                <path d="M731.716,853.296L1053.75,853.296" style="fill:none;stroke:rgb(142,103,160);stroke-width:17.79px;"/>
            </g>
            <g transform="matrix(5.68787e-17,-0.12645,0.12645,5.68787e-17,191.594,269.049)">
                <path d="M731.716,853.296L1053.75,853.296" style="fill:none;stroke:rgb(142,103,160);stroke-width:17.79px;"/>
            </g>
            <g transform="matrix(0.103582,0.072529,-0.072529,0.103582,285.573,-52.4816)">
                <path d="M731.716,853.296L1053.75,853.296" style="fill:none;stroke:rgb(142,103,160);stroke-width:17.79px;"/>
            </g>
            <g transform="matrix(2.80776e-17,-0.12645,0.12645,2.80776e-17,225.053,245.677)">
                <path d="M731.716,853.296L1053.75,853.296" style="fill:none;stroke:rgb(142,103,160);stroke-width:17.79px;"/>
            </g>
            <g transform="matrix(2.80776e-17,-0.12645,0.12645,2.80776e-17,158.1,245.677)">
                <path d="M731.716,853.296L1053.75,853.296" style="fill:none;stroke:rgb(142,103,160);stroke-width:17.79px;"/>
            </g>
            <g transform="matrix(0.103582,-0.072529,0.072529,0.103582,128.407,77.0376)">
                <path d="M731.716,853.296L1053.75,853.296" style="fill:none;stroke:rgb(142,103,160);stroke-width:17.79px;"/>
            </g>
            <g transform="matrix(-0.103582,-0.072529,0.072529,-0.103582,313.385,318.073)">
                <path d="M731.716,853.296L1053.75,853.296" style="fill:none;stroke:rgb(142,103,160);stroke-width:17.79px;"/>
            </g>
            <g transform="matrix(-0.103582,0.072529,-0.072529,-0.103582,470.541,188.554)">
                <path d="M731.716,853.296L1053.75,853.296" style="fill:none;stroke:rgb(142,103,160);stroke-width:17.79px;"/>
            </g>
        </g>
        <g transform="matrix(1,0,0,1,251.388,-14.4864)">
            <g transform="matrix(0.103582,0.072529,-0.072529,0.103582,252.207,-29.0857)">
                <path d="M731.716,853.296L1053.75,853.296" style="fill:none;stroke:rgb(142,103,160);stroke-width:17.79px;"/>
            </g>
            <g transform="matrix(0.103582,-0.072529,0.072529,0.103582,161.806,100.41)">
                <path d="M731.716,853.296L1053.75,853.296" style="fill:none;stroke:rgb(142,103,160);stroke-width:17.79px;"/>
            </g>
            <g transform="matrix(5.68787e-17,-0.12645,0.12645,5.68787e-17,191.594,269.049)">
                <path d="M731.716,853.296L1053.75,853.296" style="fill:none;stroke:rgb(142,103,160);stroke-width:17.79px;"/>
            </g>
            <g transform="matrix(5.68787e-17,-0.12645,0.12645,5.68787e-17,191.594,269.049)">
                <path d="M731.716,853.296L1053.75,853.296" style="fill:none;stroke:rgb(142,103,160);stroke-width:17.79px;"/>
            </g>
            <g transform="matrix(0.103582,0.072529,-0.072529,0.103582,285.573,-52.4816)">
                <path d="M731.716,853.296L1053.75,853.296" style="fill:none;stroke:rgb(142,103,160);stroke-width:17.79px;"/>
            </g>
            <g transform="matrix(2.80776e-17,-0.12645,0.12645,2.80776e-17,225.053,245.677)">
                <path d="M731.716,853.296L1053.75,853.296" style="fill:none;stroke:rgb(142,103,160);stroke-width:17.79px;"/>
            </g>
            <g transform="matrix(2.80776e-17,-0.12645,0.12645,2.80776e-17,158.1,245.677)">
                <path d="M731.716,853.296L1053.75,853.296" style="fill:none;stroke:rgb(142,103,160);stroke-width:17.79px;"/>
            </g>
            <g transform="matrix(0.103582,-0.072529,0.072529,0.103582,128.407,77.0376)">
                <path d="M731.716,853.296L1053.75,853.296" style="fill:none;stroke:rgb(142,103,160);stroke-width:17.79px;"/>
            </g>
            <g transform="matrix(-0.103582,-0.072529,0.072529,-0.103582,313.385,318.073)">
                <path d="M731.716,853.296L1053.75,853.296" style="fill:none;stroke:rgb(142,103,160);stroke-width:17.79px;"/>
            </g>
            <g transform="matrix(-0.103582,0.072529,-0.072529,-0.103582,470.541,188.554)">
                <path d="M731.716,853.296L1053.75,853.296" style="fill:none;stroke:rgb(142,103,160);stroke-width:17.79px;"/>
            </g>
        </g>
        <g transform="matrix(1,0,0,1,284.864,-78.7956)">
            <g transform="matrix(0.103582,0.072529,-0.072529,0.103582,252.207,-29.0857)">
                <path d="M731.716,853.296L1053.75,853.296" style="fill:none;stroke:rgb(142,103,160);stroke-width:17.79px;"/>
            </g>
            <g transform="matrix(0.103582,-0.072529,0.072529,0.103582,161.806,100.41)">
                <path d="M731.716,853.296L1053.75,853.296" style="fill:none;stroke:rgb(142,103,160);stroke-width:17.79px;"/>
            </g>
            <g transform="matrix(5.68787e-17,-0.12645,0.12645,5.68787e-17,191.594,269.049)">
                <path d="M731.716,853.296L1053.75,853.296" style="fill:none;stroke:rgb(142,103,160);stroke-width:17.79px;"/>
            </g>
            <g transform="matrix(5.68787e-17,-0.12645,0.12645,5.68787e-17,191.594,269.049)">
                <path d="M731.716,853.296L1053.75,853.296" style="fill:none;stroke:rgb(142,103,160);stroke-width:17.79px;"/>
            </g>
            <g transform="matrix(0.103582,0.072529,-0.072529,0.103582,285.573,-52.4816)">
                <path d="M731.716,853.296L1053.75,853.296" style="fill:none;stroke:rgb(142,103,160);stroke-width:17.79px;"/>
            </g>
            <g transform="matrix(2.80776e-17,-0.12645,0.12645,2.80776e-17,225.053,245.677)">
                <path d="M731.716,853.296L1053.75,853.296" style="fill:none;stroke:rgb(142,103,160);stroke-width:17.79px;"/>
            </g>
            <g transform="matrix(2.80776e-17,-0.12645,0.12645,2.80776e-17,158.1,245.677)">
                <path d="M731.716,853.296L1053.75,853.296" style="fill:none;stroke:rgb(142,103,160);stroke-width:17.79px;"/>
            </g>
            <g transform="matrix(0.103582,-0.072529,0.072529,0.103582,128.407,77.0376)">
                <path d="M731.716,853.296L1053.75,853.296" style="fill:none;stroke:rgb(142,103,160);stroke-width:17.79px;"/>
            </g>
            <g transform="matrix(-0.103582,-0.072529,0.072529,-0.103582,313.385,318.073)">
                <path d="M731.716,853.296L1053.75,853.296" style="fill:none;stroke:rgb(142,103,160);stroke-width:17.79px;"/>
            </g>
            <g transform="matrix(-0.103582,0.072529,-0.072529,-0.103582,470.541,188.554)">
                <path d="M731.716,853.296L1053.75,853.296" style="fill:none;stroke:rgb(142,103,160);stroke-width:17.79px;"/>
            </g>
        </g>
        <g transform="matrix(1,0,0,1,285,50.2044)">
            <g transform="matrix(0.103582,0.072529,-0.072529,0.103582,252.207,-29.0857)">
                <path d="M731.716,853.296L1053.75,853.296" style="fill:none;stroke:rgb(142,103,160);stroke-width:17.79px;"/>
            </g>
            <g transform="matrix(0.103582,-0.072529,0.072529,0.103582,161.806,100.41)">
                <path d="M731.716,853.296L1053.75,853.296" style="fill:none;stroke:rgb(142,103,160);stroke-width:17.79px;"/>
            </g>
            <g transform="matrix(5.68787e-17,-0.12645,0.12645,5.68787e-17,191.594,269.049)">
                <path d="M731.716,853.296L1053.75,853.296" style="fill:none;stroke:rgb(142,103,160);stroke-width:17.79px;"/>
            </g>
            <g transform="matrix(5.68787e-17,-0.12645,0.12645,5.68787e-17,191.594,269.049)">
                <path d="M731.716,853.296L1053.75,853.296" style="fill:none;stroke:rgb(142,103,160);stroke-width:17.79px;"/>
            </g>
            <g transform="matrix(0.103582,0.072529,-0.072529,0.103582,285.573,-52.4816)">
                <path d="M731.716,853.296L1053.75,853.296" style="fill:none;stroke:rgb(142,103,160);stroke-width:17.79px;"/>
            </g>
            <g transform="matrix(2.80776e-17,-0.12645,0.12645,2.80776e-17,225.053,245.677)">
                <path d="M731.716,853.296L1053.75,853.296" style="fill:none;stroke:rgb(142,103,160);stroke-width:17.79px;"/>
            </g>
            <g transform="matrix(2.80776e-17,-0.12645,0.12645,2.80776e-17,158.1,245.677)">
                <path d="M731.716,853.296L1053.75,853.296" style="fill:none;stroke:rgb(142,103,160);stroke-width:17.79px;"/>
            </g>
            <g transform="matrix(0.103582,-0.072529,0.072529,0.103582,128.407,77.0376)">
                <path d="M731.716,853.296L1053.75,853.296" style="fill:none;stroke:rgb(142,103,160);stroke-width:17.79px;"/>
            </g>
            <g transform="matrix(-0.103582,-0.072529,0.072529,-0.103582,313.385,318.073)">
                <path d="M731.716,853.296L1053.75,853.296" style="fill:none;stroke:rgb(142,103,160);stroke-width:17.79px;"/>
            </g>
            <g transform="matrix(-0.103582,0.072529,-0.072529,-0.103582,470.541,188.554)">
                <path d="M731.716,853.296L1053.75,853.296" style="fill:none;stroke:rgb(142,103,160);stroke-width:17.79px;"/>
            </g>
        </g>
        <g transform="matrix(1,0,0,1,351.953,50.2044)">
            <g transform="matrix(0.103582,0.072529,-0.072529,0.103582,252.207,-29.0857)">
                <path d="M731.716,853.296L1053.75,853.296" style="fill:none;stroke:rgb(142,103,160);stroke-width:17.79px;"/>
            </g>
            <g transform="matrix(0.103582,-0.072529,0.072529,0.103582,161.806,100.41)">
                <path d="M731.716,853.296L1053.75,853.296" style="fill:none;stroke:rgb(142,103,160);stroke-width:17.79px;"/>
            </g>
            <g transform="matrix(5.68787e-17,-0.12645,0.12645,5.68787e-17,191.594,269.049)">
                <path d="M731.716,853.296L1053.75,853.296" style="fill:none;stroke:rgb(142,103,160);stroke-width:17.79px;"/>
            </g>
            <g transform="matrix(5.68787e-17,-0.12645,0.12645,5.68787e-17,191.594,269.049)">
                <path d="M731.716,853.296L1053.75,853.296" style="fill:none;stroke:rgb(142,103,160);stroke-width:17.79px;"/>
            </g>
            <g transform="matrix(0.103582,0.072529,-0.072529,0.103582,285.573,-52.4816)">
                <path d="M731.716,853.296L1053.75,853.296" style="fill:none;stroke:rgb(142,103,160);stroke-width:17.79px;"/>
            </g>
            <g transform="matrix(2.80776e-17,-0.12645,0.12645,2.80776e-17,225.053,245.677)">
                <path d="M731.716,853.296L1053.75,853.296" style="fill:none;stroke:rgb(142,103,160);stroke-width:17.79px;"/>
            </g>
            <g transform="matrix(2.80776e-17,-0.12645,0.12645,2.80776e-17,158.1,245.677)">
                <path d="M731.716,853.296L1053.75,853.296" style="fill:none;stroke:rgb(142,103,160);stroke-width:17.79px;"/>
            </g>
            <g transform="matrix(0.103582,-0.072529,0.072529,0.103582,128.407,77.0376)">
                <path d="M731.716,853.296L1053.75,853.296" style="fill:none;stroke:rgb(142,103,160);stroke-width:17.79px;"/>
            </g>
            <g transform="matrix(-0.103582,-0.072529,0.072529,-0.103582,313.385,318.073)">
                <path d="M731.716,853.296L1053.75,853.296" style="fill:none;stroke:rgb(142,103,160);stroke-width:17.79px;"/>
            </g>
            <g transform="matrix(-0.103582,0.072529,-0.072529,-0.103582,470.541,188.554)">
                <path d="M731.716,853.296L1053.75,853.296" style="fill:none;stroke:rgb(142,103,160);stroke-width:17.79px;"/>
            </g>
        </g>
    </g>
</svg>
